#!OML:ASF F:\VICON\USERDATA\INSTALL\rory3\rory3.ASF
:FULLY-SPECIFIED
:DEGREES
21
root -0.8343975094991181 16.850661153681564 -6.589393280491027 2.75425703444354 4.3530314631706535 0.4995190167509196
lfemur -20.910365241490943 -0.8747825051428622 -25.263958922552767
ltibia 48.17900028665181
lfoot -22.424504838107637 -0.43291817476414174
ltoes 2.594913157148209
rfemur -23.393621235285654 -5.9609259699237604 20.239289062434548
rtibia 108.14573081682718
rfoot 16.32319864591937 -9.65142330648364
rtoes 29.401156935726238
lowerback nan 1.6983514723412347 -2.4307488059966156
upperback 0.1314723707546941 1.7971880135549632 -0.43871541459286645
thorax -9.898292471655914 0.9464315965984056 0.9640366694070536
lowerneck -21.55014195632333 -4.868629769492044 -1.8243651031514507
upperneck 14.241280536534468 -7.016241516810161 3.7825278154789657
head 8.190677306294758 -2.9453067316653705 0.807617465994145
lclavicle -3.889264247620367e-15 1.0171942606241048e-15
lhumerus -50.53332354136968 -16.93291329025014 99.59948683842586
lradius 104.74752169432742
lwrist 36.10300492664476
lhand -25.22103644715728 1.8416658607606262
lfingers nan
lthumb 1.391290813553941 32.19459994188852
rclavicle -2.8635462497889727e-15 1.5980918009681236e-15
rhumerus -50.61679914397409 9.646695504389383 -102.51543475959924
rradius 100.57454957365245
rwrist -7.759826261933014
rhand -18.428666905911335 nan
rfingers nan
rthumb 7.453698981431099 9.409983140952669
22
root -0.820750874081247 16.65054796114604 -4.876286765008578 3.533961968388019 4.6092008667241675 0.9436735972845383
lfemur -19.31460136949991 -1.7383464211955861 -25.68970479350955
ltibia 49.42736110697113
lfoot -25.369739271616098 3.2986670732546406
ltoes 0.41343999329614256
rfemur -29.37580945819535 -7.151310622188735 19.995245761609702
rtibia 110.69607566947191
rfoot 14.80422254202454 -7.1894743083802535
rtoes 25.235410769425137
lowerback nan 1.3895659065092147 -2.8434477176632527
upperback 0.12164508128991769 1.4230266663814781 -0.7629986656532752
thorax -10.169264198489078 0.7709215762558901 1.2246824423743354
lowerneck -22.04975746578328 -4.444312059262714 -1.8535816485760213
upperneck 13.443647947136782 -6.37932789194579 3.74753608947098
head 7.938310888479865 -2.66316510939551 0.853725896978771
lclavicle -3.751271932777155e-15 1.0737137084552699e-15
lhumerus -44.70863737122584 -19.1542255353346 98.63155129404103
lradius 105.03803738042959
lwrist 36.759172529278004
lhand -25.07104207021234 2.0203397164327037
lfingers nan
lthumb 1.5653214725090614 32.178779400406356
rclavicle -3.0458901464731625e-15 1.4046800488609217e-15
rhumerus -52.093027671261126 7.687860530222066 -102.67880899837604
rradius 100.34159879891936
rwrist -8.111497639136088
rhand -17.70019313452464 nan
rfingers nan
rthumb 8.35578223852418 10.105271744233725
23
root -0.7792290641882954 16.645293281280903 -3.244678541612476 4.149150418471266 4.742076465140567 0.816380275498028
lfemur -17.69187266823825 -2.218962231726455 -25.605293513735166
ltibia 49.58422794836312
lfoot -26.91272254213751 4.711280901559181
ltoes -0.7472023916666242
rfemur -35.001347404746426 -7.913702870809395 20.79109193751816
rtibia 111.45328131366715
rfoot 13.393554034791908 -5.085784339545067
rtoes 21.713025390124407
lowerback nan 1.1084419162293344 -2.8536528226229505
upperback 0.02414312139866115 1.0597475605889808 -0.5085949994312751
thorax -10.129892669465296 0.605225475896527 1.4279326874391816
lowerneck -22.258215711464413 -4.134690851622497 -1.8647239983407617
upperneck 13.007489174823798 -5.8573114850461465 3.7224703949446343
head 7.863153976497501 -2.414494661921968 0.8937506156614263
lclavicle -1.5624043776176258e-15 1.6244789762208042e-15
lhumerus -38.975429763184124 -20.299960771466544 97.60521803240619
lradius 106.11807842010285
lwrist 36.86902010983258
lhand -24.845667784977795 2.3235080905688634
lfingers nan
lthumb 1.7423926003314922 32.13393677545158
rclavicle -2.0833141133433637e-15 8.703144525348325e-16
rhumerus -53.59300870345337 6.85383267928237 -102.44461568158069
rradius 100.90327260690111
rwrist -9.865508664025068
rhand -17.368741241058245 nan
rfingers nan
rthumb 9.143715275977712 9.813013439560226
24
root -0.7043493854387859 16.79235891631987 -1.8595128606757232 4.812382838444129 4.597781204124035 0.2776664372465478
lfemur -15.457793765055392 -2.243045128828252 -25.137457430188825
ltibia 48.94176770552254
lfoot -25.915303209223122 5.066782028068119
ltoes -2.981457859177345
rfemur -39.3071084830801 -7.7972996629049955 22.498710622906316
rtibia 110.09919017490111
rfoot 11.974688642412032 -3.4770004203971636
rtoes 15.49198682941343
lowerback nan 0.7325733471144644 -2.4647566233997455
upperback 0.019717496926901168 0.6889225338573628 -0.1505393417462071
thorax -9.904251172575545 0.44342707167964707 1.7845748983963186
lowerneck -22.208050610956324 -3.872693394172823 -1.8056717811796652
upperneck 12.99923155892864 -5.458356896401162 3.6298887719901805
head 7.859089716295116 -2.2378897446462975 0.8813190087287508
lclavicle 2.279610318000921e-16 2.4680142625200087e-15
lhumerus -34.85344769515777 -20.48512614745063 96.53400054178333
lradius 108.67482627962671
lwrist 36.433909398445344
lhand -24.751166690167356 1.941407778136903
lfingers nan
lthumb 1.7911915136053147 31.563819807808635
rclavicle 9.095055078531335e-16 4.473615138893906e-15
rhumerus -55.187171292932746 6.206006964693081 -102.18716903847391
rradius 101.9979410980112
rwrist -10.62841954086181
rhand -16.954528407961057 nan
rfingers nan
rthumb 8.99757195246777 9.880463606507654
25
root -0.6881331061169582 16.950765570523732 -1.4407909658970333 5.26264628140719 4.4598729694480355 0.28539171593282076
lfemur -12.841713508878136 -2.2832416600704626 -25.130507934577274
ltibia 48.0693966941069
lfoot -23.358297171398846 5.079822865734843
ltoes -9.465582911838837
rfemur -42.88516652019536 -7.4404116447865025 23.23319532490065
rtibia 107.03717389752433
rfoot 9.913350844626704 -2.126923634703946
rtoes 10.973839249466446
lowerback nan 0.2551111059025942 -2.6370857883355496
upperback -0.14866106667554202 0.08724441933767801 0.24121342149004632
thorax -9.808077236788286 0.1867551118114501 2.471963705357821
lowerneck -22.30797542989756 -3.5907157964765966 -1.7586495883376572
upperneck 13.224827102763129 -5.057998827579084 3.5049695479546177
head 7.952438975615805 -2.046708836080944 0.8562079081216544
lclavicle 6.68023639247366e-16 4.1954797744971084e-15
lhumerus -32.929789015339374 -19.380220063006302 95.70935794852281
lradius 112.34397866300031
lwrist 35.82442169195714
lhand -24.572464559342258 1.645848983195335
lfingers nan
lthumb 1.817933481645882 31.118639863919146
rclavicle 7.537030758584148e-16 5.350145877156615e-15
rhumerus -56.833510133756434 6.132617667043336 -101.83070120582477
rradius 103.47072627442799
rwrist -11.678153781745063
rhand -16.780404526760908 nan
rfingers nan
rthumb 8.492225039483563 9.750960840195445
26
root -0.6535062072491993 17.15709039699738 0.13864052582293773 5.616675760209559 3.9771484276896625 0.6517073126881088
lfemur -9.274414285654778 -2.0480478988020154 -25.458145350720464
ltibia 46.74532198416498
lfoot -18.91711425659155 3.6513734068069583
ltoes -20.129324815002132
rfemur -45.30197287551648 -6.622701590729115 23.599655606271405
rtibia 102.44195062704694
rfoot 8.095886103274859 -1.2922592317364527
rtoes 8.059856221038686
lowerback nan -0.25679588995452374 -3.0794112629612957
upperback -0.3682152348038886 -0.6273656004383064 0.5143561498787936
thorax -9.979082626619656 -0.1496448980627746 3.115424886405313
lowerneck -22.55954773583071 -3.335018076824178 -1.807857189305275
upperneck 13.705482485582285 -4.691051983678585 3.3690095604573136
head 8.088939435915897 -1.8749792475970044 0.840658443928322
lclavicle 4.918921032189852e-16 5.87135751256595e-15
lhumerus -32.4573200814185 -18.06143337852394 95.20367214467461
lradius 115.7728940780599
lwrist 35.65988326797242
lhand -24.70650714521709 1.5243938874419702
lfingers nan
lthumb 1.5519600880015574 30.959531589859633
rclavicle 5.340801098383813e-16 5.338720210387431e-15
rhumerus -58.31271387455979 6.476762768147043 -101.40349846807405
rradius 104.84186985097479
rwrist -12.194415720503132
rhand -16.441385352778397 nan
rfingers nan
rthumb 8.532066823632842 9.84990876458878
27
root -0.6285676411648019 17.394683593731802 2.2652880210557003 5.700830928995429 3.2407066136635443 0.9021596810413928
lfemur -5.603942075333164 -1.669483963696955 -25.72026164873637
ltibia 44.57657913534036
lfoot -12.379970340330466 0.14744138766143244
ltoes -29.355359027162912
rfemur -46.89353684541432 -5.712343725712664 23.747540665103497
rtibia 96.63452763713678
rfoot 6.595925732595687 -0.9993893688276474
rtoes 4.329118176381035
lowerback nan -0.758116650275207 -3.442318032184173
upperback -0.6645144961214565 -1.3115437174003026 0.8601305662034163
thorax -9.905578918394449 -0.46739588085539807 3.657438304448819
lowerneck -22.393894290842724 -3.0703281341495248 -1.8036829456894752
upperneck 14.243700636228308 -4.286820283590924 3.199538352170213
head 8.250125967567506 -1.6940231468564215 0.8254047567367916
lclavicle 8.97215079856239e-16 5.828910067522968e-15
lhumerus -32.84868587240415 -17.46125048317709 94.95231181264242
lradius 118.60555739558417
lwrist 36.20734491506061
lhand -24.809210031483634 1.3651236388860628
lfingers nan
lthumb 1.3649001766022792 30.8501080202519
rclavicle 5.622461945620324e-16 5.3182166925736544e-15
rhumerus -59.53969262934324 6.636679789087732 -100.85695750514853
rradius 105.81562338258361
rwrist -12.859757279695405
rhand -15.737515114154597 nan
rfingers nan
rthumb 8.781233426759588 10.381807823105909
28
root -0.5715740720459943 17.667332700191466 4.717839956413027 5.8402725484791596 1.7047698433775227 0.804043071897639
lfemur -1.856873822746472 -0.7799775698200966 -25.59134332940617
ltibia 41.274083631240345
lfoot -3.6134915144551303 -4.413010122903939
ltoes -30.861891623208194
rfemur -47.72344312383535 -3.9407471839114234 24.137766176320568
rtibia 89.39360153950628
rfoot 5.506624483385437 -1.2291656248788323
rtoes 2.459475334055334
lowerback nan -0.8732804345112084 -3.529451425026531
upperback -0.7679864200233273 -1.4313106873813761 1.1468505959535698
thorax -9.712484812910798 -0.5368413858214053 3.962384670846621
lowerneck -22.26162780469335 -2.8261181774745774 -1.8364343011466766
upperneck 14.793484226012778 -3.9036866086767352 3.021347742785158
head 8.339519384147511 -1.5247833995529887 0.8021164873265281
lclavicle -4.448718959249544e-15 -1.1933801272518153e-15
lhumerus -33.40357492948338 -17.576848980034903 94.80847512413962
lradius 120.49919406563518
lwrist 36.76254664509808
lhand -24.89175979096115 0.9732960643117567
lfingers nan
lthumb 1.3124146383619575 30.62529384642078
rclavicle -4.709858792869243e-15 -9.417370616161515e-16
rhumerus -60.576904541635955 6.327756341626955 -100.14949051681394
rradius 106.4515551830763
rwrist -13.174450057103313
rhand -15.664318158861095 nan
rfingers nan
rthumb 9.179175671551747 10.72620803722602
